<?xml version="1.0"?>
<svg width="3011" height="2151" xmlns="http://www.w3.org/2000/svg" xmlns:svg="http://www.w3.org/2000/svg" version="1.0">
 <g class="layer" display="inline">
  <title>Layer 1</title>
  <g fill="#BF0000" id="svg_6" stroke-width="0" transform="matrix(3.5 0 0 3.5 -3525.59 -3865.93)">
   <path d="m1108.4,1134.58c1,5.6 -4.7,15.4 -15.7,26.8c-5.1,5.3 -11.9,12.8 -15.2,16.8c-3.3,3.9 -6.3,7.2 -6.8,7.2c-0.4,0 -4.5,3.8 -9.1,8.3c-8,8 -8.7,8.5 -17.2,11.2c-11.1,3.5 -12.3,4.5 -10,7.9c2.1,3.3 3,3.3 11.2,-0.4c6.9,-3.1 19,-12.7 27.4,-21.6c2.5,-2.6 6.8,-7.1 9.5,-9.9c5.5,-5.6 7,-7.3 16.3,-18.7c6.2,-7.7 9.2,-9.2 9.2,-4.6c0,3 4.8,8.6 11.2,12.9c3.1,2.2 6.2,4.8 6.8,5.9c1.5,2.8 33.5,18 41.6,19.8c2.3,0.5 5.9,2.2 7.9,3.8l3.7,2.8l8.1,-2.7c10.5,-3.5 11.1,-3.9 10.3,-7c-0.7,-2.8 -3,-3.7 -10.1,-3.7c-26.2,-0.1 -51.2,-10.4 -73.2,-30.2c-3.7,-3.4 -6.9,-6.5 -7.1,-6.9s0.6,-1.3 1.7,-1.9c1.2,-0.6 2.1,-1.7 2.1,-2.6c0,-0.8 0.7,-2.5 1.6,-3.8c1.4,-2.2 1.3,-2.8 -0.7,-7c-2.8,-5.9 -4.4,-7 -3.5,-2.4m360.3,1.5c-0.2,0.5 -0.7,2.4 -1.1,4.3c-0.7,4.2 -6.8,13.8 -13.2,20.9c-4.5,5 -5,7.8 -1.3,6.6c1.5,-0.5 1.9,-0.1 1.9,1.9c0,3.3 0.7,3.3 5.6,-0.3c2.2,-1.6 5.1,-3.2 6.6,-3.6c1.4,-0.4 3.6,-1.8 4.9,-3.1c3.2,-3.4 5.2,-3.2 4.4,0.4c-0.4,2 -0.1,3.2 1.2,4.3c3.7,3.2 17,5.4 16.1,2.7c-0.3,-0.7 -2.9,-2 -5.9,-2.8c-3.2,-0.9 -5.5,-2.2 -5.7,-3.1c-0.3,-1.8 5.8,-6.9 8.2,-6.9c3.7,0 0.4,-4.3 -4.5,-5.9c-4.4,-1.4 -8.4,-0.6 -12.2,2.6c-1.6,1.2 -3.6,2.3 -4.6,2.3c-0.9,0 -2.2,0.5 -2.9,1.2c-0.6,0.6 -1.5,0.9 -1.8,0.5c-0.4,-0.4 2.1,-3.4 5.4,-6.8c6.8,-6.7 7.9,-10.2 4.2,-13.9c-2,-2 -4.5,-2.6 -5.3,-1.3" fill="#ffffff" id="svg_7"/>
   <path d="m1420.9,1145.17c0.7,1.3 0.4,3 -0.8,5.8c-2.6,5.7 -13.5,18.9 -18.1,22l-4.1,2.7l2.8,2.9c1.4,1.5 3.1,2.8 3.6,2.8c0.4,0 2.9,-1.7 5.5,-3.9c5.8,-4.8 14.9,-11.1 16,-11.1c0.5,0 2.2,1.4 4,3.1c2.9,2.8 3.6,3.1 8.9,2.7c9,-0.5 8.4,1.4 -4.6,14.1c-6.1,5.9 -11.1,11.2 -11.1,11.8s1.6,2.5 3.6,4.3c2.7,2.3 4.2,3 5.8,2.5c2.6,-0.8 9.2,-2.4 12.9,-3.2c1.9,-0.4 2.7,-0.1 2.7,0.9c0,2.7 -3.4,4.7 -14.2,8.3c-10.4,3.5 -15.3,3.8 -18.5,1.3c-1.9,-1.5 -2.2,0.6 -0.3,2.9c2.1,2.6 9.8,3.3 14.6,1.3c3,-1.3 6.5,-0.9 6.3,0.7c0,0.4 -2.7,2.1 -5.9,3.6c-3.3,1.5 -7.7,4.2 -9.8,6c-2.2,1.8 -5.2,4.1 -6.7,5.2c-2.5,1.8 -2.7,2.3 -1.6,4.3c1.6,3 3.1,2.8 8.2,-1.3c4.3,-3.4 7.3,-4.4 8.3,-2.7c0.7,1.2 -3.4,7.2 -4.9,7.2c-0.8,0 -2.8,1.3 -4.6,2.9c-3,2.8 -3.1,2.9 -1.1,4c3.2,1.7 4.4,1.3 7.9,-2.2c13.8,-14.2 15,-15.7 12.3,-15.7c-1.7,0 -1.1,-3.6 0.8,-5.3c1,-1 3.2,-1.7 4.8,-1.7c1.7,0 3.5,-0.5 4.2,-1.2c1.4,-1.4 3.7,0.3 5.8,4.3c2.8,5.6 0.9,7.6 -4.1,4.3c-2.2,-1.4 -2.5,-1.4 -4.2,0.4c-1,1.1 -2.9,3.7 -4.3,5.7c-3.4,5.1 -8.8,10.2 -13.1,12.5c-3.9,2.1 -6.5,4.7 -5.5,5.7c1.5,1.6 6.6,0.4 10.8,-2.5c2.5,-1.7 7.8,-6.6 11.7,-10.9c5.8,-6.2 7.4,-7.5 8.1,-6.3c1.3,2 1.2,2.9 -0.6,9.1c-3.6,12 -2.8,11.2 -10.6,10.7c-3.7,-0.3 -6.8,-0.3 -6.8,0.1c0,2.2 13.1,6.4 16.9,5.4c3,-0.8 4.9,-4.9 6.2,-13.5c0.6,-4 1.4,-8 1.9,-8.8c0.4,-0.8 3,-1.9 5.9,-2.4c4.5,-0.8 5.4,-0.6 7.4,1.1c1.2,1.2 7.6,4.3 14.2,7.1c11,4.6 15,7.2 11.1,7.2c-0.9,0 -1.6,0.4 -1.6,0.8s3.7,1.6 8.3,2.6c4.5,0.9 9.4,2.2 10.9,2.8c2.9,1.1 4.8,0.5 4.8,-1.6c0,-2.2 -3.4,-4.5 -9,-6.2c-2.9,-0.9 -6.9,-2.6 -8.9,-3.8s-8,-3.9 -13.4,-6c-5.3,-2.1 -10,-4.2 -10.3,-4.7s-1.3,-0.9 -2.3,-0.9s-2.6,-0.9 -3.6,-2c-1.8,-1.9 -1.7,-2 0.5,-2c1.3,0 4,-1.1 5.9,-2.3c2,-1.3 4.8,-3.1 6.4,-4.1c3.3,-2 3.4,-3.3 0.3,-4.8c-2,-0.8 -3.2,-0.7 -6,0.6c-1.8,0.9 -3.9,1.6 -4.6,1.6c-0.6,0 -4.5,2.5 -8.6,5.5c-4.1,3.1 -7.9,5.3 -8.4,5c-0.6,-0.4 -1,-2.1 -1,-3.8c0,-1.8 -1.1,-5.6 -2.5,-8.5c-1.4,-3 -2.2,-5.8 -1.9,-6.3s1.8,-0.9 3.4,-0.9c3.5,0 13.4,-3.6 14.9,-5.3c0.8,-1 0.3,-1.8 -1.9,-3c-2.7,-1.6 -3.2,-1.6 -5.9,-0.2c-3.7,1.9 -6.1,1.9 -6.1,0.1c0,-1.4 8.6,-9.6 10.1,-9.6c0.9,0 3.3,-6.9 2.6,-7.6c-0.2,-0.3 -2.9,-0.9 -5.8,-1.4c-5,-0.8 -5.8,-0.6 -10.6,2.1c-2.9,1.6 -6.1,2.9 -7.2,2.9c-2.3,0 -4,-2.2 -2.2,-2.8c2.4,-0.8 7.9,-6.2 8.4,-8.3c0.4,-1.6 -0.1,-2.3 -2.4,-3.1c-1.6,-0.5 -2.9,-1.6 -2.9,-2.4c0,-1.8 -3,-2.9 -10.2,-3.8c-3.2,-0.4 -5.8,-1 -5.8,-1.4c0,-0.3 1.4,-2 3.1,-3.8c3.6,-3.7 3.2,-5.1 -1.5,-6c-3.8,-0.7 -5.7,0.2 -12.3,5.2c-4.2,3.2 -7.3,4.3 -7.3,2.6c0,-1.2 7.6,-7.9 9.7,-8.6c3.1,-1 5.5,-4.2 5.1,-6.7c-0.3,-2.2 -4.9,-5.7 -7.6,-5.8c-0.9,-0.1 -1,0.4 -0.3,1.7m25.2,48.4c1.3,2.1 -1,5.1 -3.4,4.4c-1.2,-0.3 -3.2,-0.6 -4.4,-0.6c-2.7,0 -2.9,-1.6 -0.6,-4.3c1.9,-2 7,-1.7 8.4,0.5m139.9,-39.2c0,1.7 3,7.3 5.2,9.7c1.1,1.2 2.1,3.3 2.2,4.7c0.1,1.9 0.6,2.6 2.2,2.6c1.2,0 2.7,-0.7 3.4,-1.5c1.1,-1.3 1,-2 -0.8,-4.3c-1.2,-1.5 -3.4,-4.5 -5,-6.7c-1.5,-2.2 -3.1,-4.3 -3.7,-4.7c-1.5,-1.1 -3.5,-1 -3.5,0.2m142.3,9.4c0.4,1 0.7,2.2 0.7,2.7s2.2,2 4.9,3.3c7.5,3.9 11.1,7.3 11.1,10.7c0,3.3 2.3,4.8 4.9,3.2c1,-0.6 1.6,-2.4 1.6,-4.8c0,-3.5 -0.5,-4.2 -5.5,-7.8c-9,-6.3 -9.4,-6.5 -12.7,-7c-1.7,-0.3 -3.7,-0.8 -4.4,-1.3c-0.9,-0.5 -1,-0.2 -0.6,1m-427.7,4.5c-1.2,1.3 -5,2.7 -11.5,4.1c-5.3,1.2 -11.2,2.7 -13.1,3.5s-6.6,1.7 -10.4,2.1l-6.8,0.7l2.8,2.4c3.6,3.1 7.3,2.8 22.1,-2.2c5.8,-1.9 10.7,-3.5 10.9,-3.5c2.1,0 -1.6,4.4 -12.7,15c-7.2,6.9 -16.5,16.8 -20.7,22c-7.4,9.2 -29.3,31.5 -36.7,37.4c-3.1,2.5 -4,2.7 -8,2.2c-5,-0.8 -5.6,0 -2.2,3.1c4.2,3.9 6.2,4.4 10.1,2.8c3.9,-1.7 11.6,-7.2 15.7,-11.4c5.8,-5.9 15.8,-17.3 21.9,-24.9c3.6,-4.5 7.2,-8.2 8.1,-8.2c1.3,0 1.8,1.6 2.4,8.1c1.3,15.3 4.7,17.3 5.5,3.3c0.3,-4.9 0.9,-9.5 1.3,-10.1c1.1,-1.7 7.2,-3.2 13.5,-3.2c2.9,0 6.1,-0.3 7.1,-0.6c4.2,-1.3 3,1.9 -2.6,7c-3.2,2.9 -7.2,7.2 -8.8,9.6c-1.7,2.4 -3.6,5 -4.3,5.8c-0.7,0.7 -1.2,2.8 -1,4.5c0.3,2.7 0.6,3.1 3.1,2.8c1.5,-0.2 5.4,-1.4 8.7,-2.8c3.3,-1.3 7.4,-2.4 9.2,-2.4s4.9,-0.4 6.8,-1c3.5,-1 5.5,-0.2 5.5,2.2c0,0.6 1.3,1.2 2.9,1.4s3.4,0.8 3.9,1.3c1.3,1.3 5.7,1.5 5.7,0.3c0,-0.5 -0.7,-1.7 -1.5,-2.8c-0.8,-1 -1.5,-2.7 -1.5,-3.6c0,-1.9 -1.6,-2.4 -10.2,-3.2c-3.4,-0.3 -6,0 -6.4,0.6c-0.4,0.5 -2.3,0.8 -4.3,0.5c-2,-0.2 -4.6,0 -5.8,0.4c-4.9,1.8 -2.2,-2.9 6.3,-10.9c6.3,-6 8.6,-8.8 8.7,-10.8c0.2,-2.4 -0.3,-2.9 -2.8,-3.5c-7.2,-1.6 -19.8,-0.3 -23.2,2.3c-0.7,0.6 -3,0.7 -5.1,0.3c-2.1,-0.3 -5.1,-0.1 -6.7,0.5c-1.9,0.7 -3.2,0.7 -3.8,0.1c-0.7,-0.7 -0.5,-1.3 0.7,-1.7c2.6,-1 27.5,-29.4 27.8,-31.8c0.3,-1.8 1.2,-2.2 5.8,-2.7c3,-0.3 7.9,-0.1 10.8,0.5c5.6,1.1 8.7,0.2 8.7,-2.5c0,-2.5 -5.8,-4.4 -15,-4.7c-8.1,-0.3 -9.2,-0.2 -10.9,1.7m347,-0.1c-0.3,0.2 -0.1,1.4 0.5,2.4c0.8,1.5 0.8,3.3 -0.1,6.4c-0.7,2.4 -1,5.4 -0.7,6.6c0.4,1.3 0,5 -0.8,8.3c-0.9,3.6 -1.9,16 -2.5,31.3c-0.5,14 -1.2,25.8 -1.6,26.3c-1,1.6 -2.7,1 -8.5,-3.1c-5.9,-4.1 -10.9,-6.5 -10.9,-5.2c0,0.4 1.4,1.6 3.2,2.7c1.8,1 5,3.6 7.3,5.8c10,9.6 10.1,9.6 14,2.6c2.2,-4.1 2.6,-5.9 2.2,-9.3c-0.7,-4.7 0.9,-34.4 2.3,-42.6c0.5,-3 1.3,-9 1.9,-13.2c0.5,-4.3 1.5,-8.7 2.1,-9.8s0.8,-2.9 0.5,-4c-0.6,-1.8 -8,-6.2 -8.9,-5.2m144.4,8c-2.1,1.7 -2.3,2.8 -2.7,15.8c-0.6,16.8 -1.1,17.9 -8.6,18.8c-2.9,0.4 -6.7,1.4 -8.3,2.2c-4.4,2.3 -18.5,7.4 -20.6,7.4c-1.4,0 -1.8,0.8 -1.8,3.6c0,3.3 0.2,3.6 2.3,3.1c5.7,-1.4 28.2,-9.8 29.7,-11.2c0.9,-0.8 2.4,-1.5 3.3,-1.5c2.2,0 2.3,6.5 0.1,11.9c-1.2,3.1 -1.3,4.4 -0.4,6c0.6,1.2 0.9,2.5 0.6,3c-0.3,0.4 -4.7,0.7 -9.8,0.6c-5.1,-0.2 -9.6,-0.1 -10.1,0.2c-1.5,0.9 2.9,6.5 6.7,8.4c3.8,1.8 4,1.8 10,-0.2c8.5,-3 31.3,-3.9 37,-1.5c2.7,1.1 3.6,2 3.2,3.1c-0.3,0.9 0,1.5 1,1.5c0.8,0 2.8,0.7 4.5,1.5c2.2,1.2 3.4,1.3 4.9,0.5c2.9,-1.6 2.5,-3.3 -1.9,-7.8c-5.9,-6.1 -12.6,-7.7 -29.3,-6.9l-13.1,0.6l0.7,-6.1c0.3,-3.4 0.6,-7.1 0.6,-8.3c0,-4.9 2.8,-6.6 12.3,-7.4c5.9,-0.6 9.4,-1.4 10.4,-2.4c2.9,-2.9 -0.4,-5 -10.9,-7.2c-1.4,-0.3 -4,-1.7 -5.7,-3.1c-3.5,-2.9 -3.8,-5.2 -1.9,-13.4c0.9,-4.1 0.9,-5.6 -0.1,-7.2c-0.9,-1.5 -0.9,-2.3 0,-3.4c1.8,-2.2 0.4,-2.7 -2.1,-0.6m-196.5,2.5c-2.2,0.5 -6.5,1.9 -9.5,2.9c-3,1.1 -8.1,2.5 -11.3,3.1c-5.1,0.9 -5.9,0.8 -7.1,-0.8c-1.2,-1.7 -1.4,-1.7 -3.9,0c-1.5,0.9 -2.7,2 -2.7,2.4c0,2.2 3.1,3.1 10.7,3.1c11.2,0 11.7,1.3 3.4,8.9c-3.4,3.2 -6.1,6.6 -6.1,7.7c0,1.9 4,6.4 5.7,6.4c0.5,0 1.9,-1.8 3.2,-4c2.2,-4 3.5,-4.8 4.5,-3.1c0.9,1.4 -3.9,10.3 -8.4,15.3c-2.2,2.5 -4,5.3 -4,6.2c0,1.4 4.7,5.3 5.4,4.5c0.2,-0.2 1.5,-2.2 3,-4.4c1.4,-2.2 4.2,-6 6.1,-8.5c7,-9 8.7,-12 8.8,-15.2c0.2,-3 0,-3.3 -2.3,-2.9c-6.1,0.9 -7.5,0.6 -7.8,-1.6c-0.2,-1.4 0.3,-2.3 1.7,-2.8c1.2,-0.3 3.5,-1.8 5.3,-3.3c1.7,-1.5 5.2,-3.9 7.7,-5.3c3.5,-1.9 4.7,-3.2 4.9,-5.4c0.3,-2.4 -1.2,-4.7 -2.8,-4.4c-0.3,0.1 -2.3,0.6 -4.5,1.2m-498.3,8.6c-5.9,1.9 -7.5,3.6 -6.2,6.2c1.1,1.9 5.1,3 7.2,1.9c0.7,-0.4 3.4,-1.1 6.1,-1.4l4.7,-0.7l0,3.8c0,2.1 -0.7,5.1 -1.5,6.7c-0.8,1.5 -1.5,3.4 -1.5,4.1c0,2.1 -2.9,2.6 -8.9,1.4c-3.1,-0.7 -6.9,-0.9 -8.3,-0.6c-3.5,0.9 -4.5,3.8 -1.9,5.6c1.2,0.7 2.1,2.2 2.1,3.3c0,3.3 4.1,7.8 7.2,7.8c3.4,0 3.7,1.9 0.7,4.6c-1.2,1 -3.4,4.2 -5,7s-4,5.6 -5.4,6.2c-2.2,1 -2.3,1.4 -1.4,4c1.4,4 4.7,5.4 8.3,3.5c3.5,-1.8 17.2,-1.9 19.3,-0.1c1.3,1.1 1.2,1.4 -0.6,2.9c-3.6,2.9 -2.6,4.6 2.9,5.3c6.4,0.9 10.4,-0.8 10.8,-4.5c0.2,-1.5 -0.3,-3.3 -1.1,-4c-0.7,-0.8 -1.6,-2.1 -1.9,-2.9c-0.9,-2.4 -15.9,-6.4 -20.8,-5.6c-3.4,0.5 -4,0.4 -4,-1.2c0,-1 1.2,-2.9 2.6,-4.3c3.5,-3.3 10.1,-13 10.9,-16.2c0.4,-1.4 0.2,-3.4 -0.4,-4.5c-0.8,-1.5 -0.7,-2.3 0.3,-3.1c2.5,-2.1 5.6,-10 5.6,-14.3c0,-4.8 -2.5,-9.4 -6.2,-11.4c-3,-1.7 -7.1,-1.6 -13.6,0.5m0.5,27.2c0.3,1.1 1.1,1.8 1.8,1.5c0.7,-0.2 2.1,0.1 3,0.8c1.4,1 1.5,1.6 0.6,3.4c-1.1,2.1 -4.1,3.1 -4.1,1.4c0,-0.5 -1.6,-1.6 -3.5,-2.5c-3.6,-1.7 -4.4,-3.4 -2.3,-5.5c1.8,-1.8 3.9,-1.4 4.5,0.9m640.8,-20.1c-0.3,0.5 -1.6,1 -2.7,1c-2.2,0 -7.6,2.9 -12.2,6.7c-2.6,2.2 -3,2.2 -4.6,0.8c-1.9,-1.7 -5.6,-2 -6.5,-0.5c-0.3,0.6 0.2,1.3 1.2,1.7c1,0.3 2.9,1.5 4.2,2.5c3.1,2.3 5.1,2.3 10,-0.3c5.3,-2.7 9.5,-2.3 9.9,1.1c0.4,3.5 -7.6,18 -13,23.5c-9.1,9.3 -10.5,10.5 -12.9,10.5c-1.1,0 -1.9,0.3 -1.7,0.7c0.2,0.5 1.2,2.5 2.1,4.5c1,2.1 2.1,3.8 2.5,3.8c1.5,0 7.1,-4 8.1,-5.8c0.5,-1 2.9,-2.7 5.3,-3.7s5.5,-3 7,-4.3c1.4,-1.3 3.1,-2.1 3.7,-1.8c2,1.3 1.3,7.4 -1.1,9.8c-1.3,1.3 -2.1,3.2 -2,4.4c0.2,1.7 -0.3,2.3 -2,2.6l-2.3,0.3l2.2,1.3c1.2,0.7 4.3,1.5 6.9,1.9c4.2,0.5 4.7,0.4 4.1,-1.1c-0.4,-0.9 -0.2,-4.9 0.5,-8.9c0.6,-4 1.2,-12.8 1.3,-19.7c0,-9.5 0.5,-13.7 1.9,-17.6c1.9,-5 1.9,-5.2 0,-7.2c-1,-1.1 -2.7,-3.2 -3.7,-4.6c-1.8,-2.6 -5.1,-3.5 -6.2,-1.6m-117.7,5.5c0.3,3.6 -0.1,6.8 -1.2,9.5c-2.2,5.5 -2,8.3 0.7,10.9c3.7,3.4 5.3,1.9 6.1,-5.7c1.1,-12.4 0.9,-14.6 -2.2,-17.5c-1.5,-1.5 -3,-2.7 -3.3,-2.7s-0.4,2.5 -0.1,5.5m-22.6,10.8c-1.2,1.3 -2.2,2.8 -2.2,3.4c0,0.5 -1.3,2.5 -2.9,4.4c-1.7,1.9 -5.2,6.2 -8,9.6s-6.2,7 -7.6,8s-3.6,2.6 -4.8,3.5l-2.2,1.8l2.8,2.5c4.1,3.7 6,3.2 10.3,-2.8c2.1,-2.8 4.7,-6.2 5.7,-7.5c1.9,-2.1 2.2,-2.1 4.6,-0.6c1.4,0.9 3.1,2.2 3.6,2.8c1.7,2 8.7,3.7 10.2,2.4c1.6,-1.3 1.7,-2.8 0.1,-2.8c-0.7,0 -3.2,-1.6 -5.6,-3.4c-2.4,-1.9 -4.9,-3.7 -5.5,-3.9c-0.9,-0.3 -0.7,-1.2 0.5,-3.3c2.4,-4.1 7.8,-15.1 7.8,-15.8c0,-1.6 -4.9,-0.3 -6.8,1.7" fill="#ffffff" id="svg_8"/>
   <path d="m1122,1222.28c0,1.9 -0.8,3.5 -2.1,4.5c-1.2,0.8 -3.2,3.1 -4.6,5.1c-2.7,3.9 -2.1,5.4 2,5.5c3.6,0 12.7,-7.2 12.7,-10.1c0,-1.4 -6.2,-7.9 -7.5,-7.9c-0.3,0 -0.5,1.3 -0.5,2.9m-49,2.4c0,1.6 5.8,10.9 7.4,11.9c0.6,0.4 2.1,0.8 3.3,0.8c2,0 2.1,-0.3 1.2,-2.8c-2,-5.9 -11.9,-14.1 -11.9,-9.9" fill="#ffffff" id="svg_9"/>
  </g>
  <path id="svg_21" transform="scale(1 1)"/>
 </g>

</svg>